# xmcd
#
# Track frame offsets: 
#        150
#        106791
#        123356
#        150262
#        159464
#        174550
#        185632
#        199798
#        213291
#        224353
#        241699
#        255959
#        266874
#        281930
#        292691
#        311552
#        329656
#
# Disc length: 4578 seconds
#
# Revision: 2
# Processed by: cddbd v1.5.2PL0 Copyright (c) Steve Scherf et al.
# Submitted via: ExactAudioCopy v1.0b1
#
DISCID=f311e011
DTITLE=Josh White - The Elektra Years
DYEAR=2004
DGENRE=Blues
TTITLE0=The Story Of John Henry (mono)
TTITLE1=Where Were You, Baby? (mono)
TTITLE2=Jelly, Jelly (mono)
TTITLE3=Woman Sure Is A Curious Critter (mono)
TTITLE4=Empty Bed Blues (mono)
TTITLE5=Bottle Up And Go (mono)
TTITLE6=One For My Baby (mono)
TTITLE7=Sam Hall (mono)
TTITLE8=Prison Bound Blues (mono)
TTITLE9=Trouble (mono)
TTITLE10=Ball And Chain Blues (mono)
TTITLE11='Twas On A Monday (mono)
TTITLE12=Going Home Boys (mono)
TTITLE13=Told My Captain (mono)
TTITLE14=Jesus Gonna Make Up My Dying Bed (mono)
TTITLE15=Bury My Body (mono)
TTITLE16=Lay Some Flowers On My Grave (mono)
EXTD=
EXTT0=
EXTT1=
EXTT2=
EXTT3=
EXTT4=
EXTT5=
EXTT6=
EXTT7=
EXTT8=
EXTT9=
EXTT10=
EXTT11=
EXTT12=
EXTT13=
EXTT14=
EXTT15=
EXTT16=
PLAYORDER=
